name Run_200 02_newCOP3_v24.mot
datacolumns 19
datarows 25
range 4.09800000 4.12200000
endheader
                time	   R_ground_force_vx	   R_ground_force_vy	   R_ground_force_vz	   R_ground_force_px	   R_ground_force_py	   R_ground_force_pz	   L_ground_force_vx	   L_ground_force_vy	   L_ground_force_vz	   L_ground_force_px	   L_ground_force_py	   L_ground_force_pz	   R_ground_torque_x	   R_ground_torque_y	   R_ground_torque_z	   L_ground_torque_x	   L_ground_torque_y	   L_ground_torque_z	
          4.09800000	        -57.96403900	        822.86993400	         34.48487500	          1.05798300	          0.00000000	         -0.27380800	          0.00000000	          0.00000000	          0.00000000	          0.00000000	          0.00000000	          0.00000000	          0.00000000	         -3.33802400	          0.00000000	          0.00000000	          0.00000000	          0.00000000	
          4.09900000	        -62.36948800	        822.74224900	         31.08817500	          1.05807700	          0.00000000	         -0.27367900	          0.00000000	          0.00000000	          0.00000000	          0.00000000	          0.00000000	          0.00000000	          0.00000000	         -3.48083300	          0.00000000	          0.00000000	          0.00000000	          0.00000000	
          4.10000000	        -66.69724300	        822.66577100	         27.49917400	          1.05813200	          0.00000000	         -0.27354000	          0.00000000	          0.00000000	          0.00000000	          0.00000000	          0.00000000	          0.00000000	          0.00000000	         -3.54295100	          0.00000000	          0.00000000	          0.00000000	          0.00000000	
          4.10100000	        -70.94040700	        822.73162800	         23.77098700	          1.05814400	          0.00000000	         -0.27339000	          0.00000000	          0.00000000	          0.00000000	          0.00000000	          0.00000000	          0.00000000	          0.00000000	         -3.53337600	          0.00000000	          0.00000000	          0.00000000	          0.00000000	
          4.10200000	        -75.09200300	        823.02356000	         19.95572700	          1.05811000	          0.00000000	         -0.27322800	          0.00000000	          0.00000000	          0.00000000	          0.00000000	          0.00000000	          0.00000000	          0.00000000	         -3.46126500	          0.00000000	          0.00000000	          0.00000000	          0.00000000	
          4.10300000	        -79.14474500	        823.61755400	         16.10344300	          1.05802400	          0.00000000	         -0.27305500	          0.00000000	          0.00000000	          0.00000000	          0.00000000	          0.00000000	          0.00000000	          0.00000000	         -3.33577000	          0.00000000	          0.00000000	          0.00000000	          0.00000000	
          4.10400000	        -83.09088100	        824.58111600	         12.26118900	          1.05788500	          0.00000000	         -0.27287100	          0.00000000	          0.00000000	          0.00000000	          0.00000000	          0.00000000	          0.00000000	          0.00000000	         -3.16588600	          0.00000000	          0.00000000	          0.00000000	          0.00000000	
          4.10500000	        -86.92211900	        825.97302200	          8.47224900	          1.05768900	          0.00000000	         -0.27267500	          0.00000000	          0.00000000	          0.00000000	          0.00000000	          0.00000000	          0.00000000	          0.00000000	         -2.96032600	          0.00000000	          0.00000000	          0.00000000	          0.00000000	
          4.10600000	        -90.62963900	        827.84326200	          4.77550600	          1.05743200	          0.00000000	         -0.27246700	          0.00000000	          0.00000000	          0.00000000	          0.00000000	          0.00000000	          0.00000000	          0.00000000	         -2.72739800	          0.00000000	          0.00000000	          0.00000000	          0.00000000	
          4.10700000	        -94.20422400	        830.23284900	          1.20496800	          1.05711200	          0.00000000	         -0.27224800	          0.00000000	          0.00000000	          0.00000000	          0.00000000	          0.00000000	          0.00000000	          0.00000000	         -2.47491700	          0.00000000	          0.00000000	          0.00000000	          0.00000000	
          4.10800000	        -97.63642900	        833.17388900	         -2.21057500	          1.05672500	          0.00000000	         -0.27201800	          0.00000000	          0.00000000	          0.00000000	          0.00000000	          0.00000000	          0.00000000	          0.00000000	         -2.21012200	          0.00000000	          0.00000000	          0.00000000	          0.00000000	
          4.10900000	       -100.91685500	        836.68994100	         -5.44774000	          1.05627000	          0.00000000	         -0.27177900	          0.00000000	          0.00000000	          0.00000000	          0.00000000	          0.00000000	          0.00000000	          0.00000000	         -1.93961800	          0.00000000	          0.00000000	          0.00000000	          0.00000000	
          4.11000000	       -104.03641500	        840.79614300	         -8.48861600	          1.05574500	          0.00000000	         -0.27152900	          0.00000000	          0.00000000	          0.00000000	          0.00000000	          0.00000000	          0.00000000	          0.00000000	         -1.66932800	          0.00000000	          0.00000000	          0.00000000	          0.00000000	
          4.11100000	       -106.98665600	        845.49951200	        -11.32069500	          1.05514900	          0.00000000	         -0.27127200	          0.00000000	          0.00000000	          0.00000000	          0.00000000	          0.00000000	          0.00000000	          0.00000000	         -1.40446700	          0.00000000	          0.00000000	          0.00000000	          0.00000000	
          4.11200000	       -109.76003300	        850.79962200	        -13.93668400	          1.05448200	          0.00000000	         -0.27100600	          0.00000000	          0.00000000	          0.00000000	          0.00000000	          0.00000000	          0.00000000	          0.00000000	         -1.14952900	          0.00000000	          0.00000000	          0.00000000	          0.00000000	
          4.11300000	       -112.35015900	        856.68896500	        -16.33420200	          1.05374200	          0.00000000	         -0.27073400	          0.00000000	          0.00000000	          0.00000000	          0.00000000	          0.00000000	          0.00000000	          0.00000000	         -0.90828100	          0.00000000	          0.00000000	          0.00000000	          0.00000000	
          4.11400000	       -114.75201400	        863.15338100	        -18.51536800	          1.05293100	          0.00000000	         -0.27045700	          0.00000000	          0.00000000	          0.00000000	          0.00000000	          0.00000000	          0.00000000	          0.00000000	         -0.68378100	          0.00000000	          0.00000000	          0.00000000	          0.00000000	
          4.11500000	       -116.96207400	        870.17279100	        -20.48630900	          1.05205000	          0.00000000	         -0.27017600	          0.00000000	          0.00000000	          0.00000000	          0.00000000	          0.00000000	          0.00000000	          0.00000000	         -0.47839600	          0.00000000	          0.00000000	          0.00000000	          0.00000000	
          4.11600000	       -118.97831700	        877.72180200	        -22.25656900	          1.05110100	          0.00000000	         -0.26989200	          0.00000000	          0.00000000	          0.00000000	          0.00000000	          0.00000000	          0.00000000	          0.00000000	         -0.29383300	          0.00000000	          0.00000000	          0.00000000	          0.00000000	
          4.11700000	       -120.80025500	        885.77014200	        -23.83847200	          1.05008400	          0.00000000	         -0.26960700	          0.00000000	          0.00000000	          0.00000000	          0.00000000	          0.00000000	          0.00000000	          0.00000000	         -0.13118500	          0.00000000	          0.00000000	          0.00000000	          0.00000000	
          4.11800000	       -122.42881000	        894.28344700	        -25.24644300	          1.04900500	          0.00000000	         -0.26932200	          0.00000000	          0.00000000	          0.00000000	          0.00000000	          0.00000000	          0.00000000	         -0.00000000	          0.00903300	         -0.00000000	          0.00000000	          0.00000000	          0.00000000	
          4.11900000	       -123.86615800	        903.22381600	        -26.49630400	          1.04786500	          0.00000000	         -0.26903900	          0.00000000	          0.00000000	          0.00000000	          0.00000000	          0.00000000	          0.00000000	         -0.00000000	          0.12682100	         -0.00000000	          0.00000000	          0.00000000	          0.00000000	
          4.12000000	       -125.11556200	        912.55047600	        -27.60457400	          1.04666700	          0.00000000	         -0.26875800	          0.00000000	          0.00000000	          0.00000000	          0.00000000	          0.00000000	          0.00000000	         -0.00000000	          0.22264900	         -0.00000000	          0.00000000	          0.00000000	          0.00000000	
          4.12100000	       -126.18114500	        922.22033700	        -28.58781600	          1.04541700	          0.00000000	         -0.26848100	          0.00000000	          0.00000000	          0.00000000	          0.00000000	          0.00000000	          0.00000000	         -0.00000000	          0.29739200	         -0.00000000	          0.00000000	          0.00000000	          0.00000000	
          4.12200000	       -127.06767300	        932.18890400	        -29.46202300	          1.04411800	          0.00000000	         -0.26820900	          0.00000000	          0.00000000	          0.00000000	          0.00000000	          0.00000000	          0.00000000	         -0.00000000	          0.35227400	         -0.00000000	          0.00000000	          0.00000000	          0.00000000	
